Patient4_TMGait_0pt2_03_left_16_GRF.mot
version=1
nRows=26
nColumns=19
inDegrees=no
endheader
time	F1x	F1y	F1z	M1x	M1y	M1z	F2x	F2y	F2z	M2x	M2y	M2z	EC1x	EC1y	EC1z	EC2x	EC2y	EC2z
33.35	2.086	4.4146	1.3323	-1.2278	-0.50318	2.2502	-29.8418	795.5577	-53.6533	253.4695	67.9024	850.4332	-0.0592	0.0182	-0.0073	-0.0462	0.0165	0.9585
33.3708	1.4408	3.1205	0.96084	-0.8682	-0.39376	1.6939	-26.1685	818.9735	-53.7275	261.0205	66.7717	874.9648	-0.0592	0.0182	-0.0073	-0.0462	0.0165	0.9585
33.3916	0.8852	2.0313	0.64415	-0.56714	-0.30628	1.2436	-22.9527	843.7955	-53.3825	269.1033	65.1734	900.3139	-0.0592	0.0182	-0.0073	-0.0462	0.0165	0.9585
33.4124	0.45451	1.2111	0.40416	-0.3432	-0.24685	0.91852	-20.1658	867.0921	-52.6228	276.749	63.0877	923.3505	-0.0592	0.0182	-0.0073	-0.0462	0.0165	0.9585
33.4331	0.14862	0.64586	0.24308	-0.19149	-0.21556	0.69894	-17.663	885.4685	-51.5457	282.8168	60.5837	940.6156	-0.0592	0.0182	-0.0073	-0.0462	0.0165	0.9585
33.4539	-0.048783	0.27369	0.15043	-0.092802	-0.20796	0.54303	-15.3419	895.7191	-50.2778	286.224	57.7979	948.9607	-0.0592	0.0182	-0.0073	-0.0462	0.0165	0.9585
33.4747	-0.161	0.013037	0.1092	-0.020676	-0.21746	0.39558	-13.131	895.7491	-48.9201	286.2601	54.8659	946.43	-0.0592	0.0182	-0.0073	-0.0462	0.0165	0.9585
33.4955	-0.21355	-0.22426	0.10206	0.054441	-0.23774	0.18861	-10.9386	885.1674	-47.5271	282.7861	51.8751	932.8082	-0.0592	0.0182	-0.0073	-0.0462	0.0165	0.9585
33.5163	-0.2282	-0.5263	0.11223	0.16234	-0.2584	-0.15053	-8.6603	865.268	-46.1396	276.2253	48.891	909.5721	-0.0592	0.0182	-0.0073	-0.0462	0.0165	0.9585
33.5371	-0.21696	-0.97824	0.1266	0.33095	-0.26694	-0.69221	-6.2291	838.4897	-44.8231	267.3814	46.0053	879.3347	-0.0592	0.0182	-0.0073	-0.0462	0.0165	0.9585
33.5579	-0.18403	-1.6455	0.13231	0.58101	-0.25119	-1.4943	-3.6403	807.7387	-43.6676	257.2149	43.3444	845.1406	-0.0592	0.0182	-0.0073	-0.0462	0.0165	0.9585
33.5786	-0.12984	-2.5519	0.11889	0.91894	-0.19998	-2.581	-0.92943	775.9116	-42.7593	246.6837	41.0313	809.9674	-0.0592	0.0182	-0.0073	-0.0462	0.0165	0.9585
33.5994	-0.049426	-3.6589	0.078498	1.3293	-0.10139	-3.9109	1.8384	745.6333	-42.1565	236.6549	39.1531	776.4755	-0.0592	0.0182	-0.0073	-0.0462	0.0165	0.9585
33.6202	0.06324	-4.8354	0.0045128	1.7622	0.05325	-5.3324	4.5874	719.1139	-41.8911	227.8565	37.7613	746.8791	-0.0592	0.0182	-0.0073	-0.0462	0.0165	0.9585
33.641	0.20767	-5.8137	-0.10783	2.1182	0.26508	-6.5332	7.2635	698.0749	-41.9763	220.8539	36.873	722.8763	-0.0592	0.0182	-0.0073	-0.0462	0.0165	0.9585
33.6618	0.3708	-6.1464	-0.25346	2.2305	0.51878	-6.9983	9.8585	683.7133	-42.401	216.0353	36.4589	705.6169	-0.0592	0.0182	-0.0073	-0.0462	0.0165	0.9585
33.6826	0.52552	-5.1815	-0.4123	1.8529	0.77869	-5.9707	12.404	676.6306	-43.1328	213.5879	36.4511	695.6425	-0.0592	0.0182	-0.0073	-0.0462	0.0165	0.9585
33.7034	0.62594	-2.052	-0.54588	0.6587	0.98199	-2.4358	14.9339	676.7572	-44.1304	213.4741	36.7695	692.8325	-0.0592	0.0182	-0.0073	-0.0462	0.0165	0.9585
33.7241	0.60332	4.2949	-0.58949	-1.7439	1.0275	4.8355	17.4544	683.3038	-45.3362	215.4193	37.329	696.3699	-0.0592	0.0182	-0.0073	-0.0462	0.0165	0.9585
33.7449	0.36379	14.9723	-0.44635	-5.766	0.76734	17.1511	19.9323	694.7493	-46.6749	218.9109	38.0382	704.741	-0.0592	0.0182	-0.0073	-0.0462	0.0165	0.9585
33.7657	-0.21237	30.9078	0.011453	-11.7455	0.0062067	35.6128	22.2948	708.7758	-48.0479	223.1841	38.798	715.6725	-0.0592	0.0182	-0.0073	-0.0462	0.0165	0.9585
33.7865	-1.2598	52.4459	0.93974	-19.7982	-1.4922	60.6652	24.3968	722.2574	-49.3083	227.2276	39.491	726.1251	-0.0592	0.0182	-0.0073	-0.0462	0.0165	0.9585
33.8073	-2.9331	78.8012	2.4965	-29.6134	-3.9748	91.4552	26.0292	731.5052	-50.2574	229.8747	39.9786	732.532	-0.0592	0.0182	-0.0073	-0.0462	0.0165	0.9585
33.8281	-5.3436	107.5674	4.7745	-40.274	-7.5933	125.2412	26.9679	732.9333	-50.6644	230.0205	40.1077	731.4405	-0.0592	0.0182	-0.0073	-0.0462	0.0165	0.9585
33.8489	-8.1141	134.9673	7.6488	-50.3687	-12.0531	157.6299	27.0654	723.9931	-50.3417	226.906	39.7547	720.4112	-0.0592	0.0182	-0.0073	-0.0462	0.0165	0.9585
33.8696	-10.6011	158.1229	10.5595	-58.86	-16.4501	185.1939	26.364	704.0324	-49.2501	220.3673	38.8895	698.8251	-0.0592	0.0182	-0.0073	-0.0462	0.0165	0.9585
